<?xml version="1.0" encoding="UTF-8" standalone="no"?>
<!-- Created with Inkscape (http://www.inkscape.org/) -->

<svg
   xmlns:dc="http://purl.org/dc/elements/1.1/"
   xmlns:cc="http://creativecommons.org/ns#"
   xmlns:rdf="http://www.w3.org/1999/02/22-rdf-syntax-ns#"
   xmlns:svg="http://www.w3.org/2000/svg"
   xmlns="http://www.w3.org/2000/svg"
   xmlns:sodipodi="http://sodipodi.sourceforge.net/DTD/sodipodi-0.dtd"
   xmlns:inkscape="http://www.inkscape.org/namespaces/inkscape"
   version="1.1"
   id="svg3783"
   width="1500"
   height="1500"
   viewBox="0 0 1500 1500"
   sodipodi:docname="Cybernity.svg"
   inkscape:version="0.92.4 (5da689c313, 2019-01-14)">
  <metadata
     id="metadata3789">
    <rdf:RDF>
      <cc:Work
         rdf:about="">
        <dc:format>image/svg+xml</dc:format>
        <dc:type
           rdf:resource="http://purl.org/dc/dcmitype/StillImage" />
        <dc:title></dc:title>
      </cc:Work>
    </rdf:RDF>
  </metadata>
  <defs
     id="defs3787" />
  <sodipodi:namedview
     pagecolor="#ffffff"
     bordercolor="#666666"
     borderopacity="1"
     objecttolerance="10"
     gridtolerance="10"
     guidetolerance="10"
     inkscape:pageopacity="0"
     inkscape:pageshadow="2"
     inkscape:window-width="1920"
     inkscape:window-height="1015"
     id="namedview3785"
     showgrid="false"
     inkscape:snap-global="true"
     inkscape:zoom="0.35355339"
     inkscape:cx="1045.2068"
     inkscape:cy="622.80775"
     inkscape:window-x="1920"
     inkscape:window-y="0"
     inkscape:window-maximized="1"
     inkscape:current-layer="svg3783" />
  <g
     id="g3796"
     transform="translate(1541.717,-1.8137844)">
    <path
       inkscape:connector-curvature="0"
       id="path3793"
       d="M -1541.4928,755.65685 V 5.6568542 h 750.00002 750.000005 V 755.65685 1505.6569 H -791.49278 -1538.9277 Z m 307.5399,391.47845 c 9.5368,-2.4348 18.4206,-7.2957 24.5043,-13.4081 6.6874,-6.7188 10.0472,-13.5056 10.7068,-21.6274 0.722,-8.8903 -0.1086,-9.4467 -14.0724,-9.4276 -6.1482,0.01 -11.7742,0.393 -12.5022,0.8545 -0.728,0.4616 -1.7656,2.8172 -2.3059,5.2347 -0.5403,2.4175 -1.6388,5.4022 -2.4411,6.6326 -4.2704,6.5495 -20.0888,8.8364 -28.5252,4.124 -8.4908,-4.7427 -8.4042,-4.3803 -8.4042,-35.1844 0,-27.1097 0.01,-27.185 2.4079,-30.5528 3.2834,-4.6036 9.9049,-7.3739 17.6252,-7.3739 10.4791,0 14.0384,2 20.7636,11.6673 1.7601,2.5302 2.0374,2.5827 13.6276,2.5827 13.9287,0 14.6966,-0.4352 13.6992,-7.7639 -1.4748,-10.8362 -10.5484,-22.2169 -22.052,-27.659 -23.6993,-11.2115 -55.5858,-4.9483 -69.1953,13.5916 -6.6996,9.1266 -7.3762,13.2847 -7.3762,45.3313 0,24.914 0.2263,29.0489 1.8807,34.3643 5.5777,17.9212 24.4346,29.8117 47.6592,30.0524 4.422,0.046 10.722,-0.6014 14,-1.4383 z m 115.2601,-2.6784 c 0.8591,-0.859 1.2,-7.3183 1.2,-22.7325 v -21.5326 l 19.5685,-36.2755 c 12.4943,-23.1615 19.4534,-37.086 19.25,-38.5175 -0.3095,-2.1787 -0.6959,-2.2498 -13.7066,-2.5219 -11.401,-0.2384 -13.664,-0.03 -15.2467,1.402 -1.0222,0.9251 -6.6191,10.7261 -12.4375,21.78 -5.8185,11.0539 -10.8977,20.4283 -11.2873,20.8319 -0.3895,0.4037 -5.868,-8.7617 -12.1743,-20.3674 -6.3063,-11.6057 -12.4196,-21.7366 -13.5849,-22.513 -1.6263,-1.0835 -5.3458,-1.3468 -16,-1.1326 -13.1238,0.2639 -13.8972,0.3909 -14.1744,2.3283 -0.1727,1.2071 7.9145,16.6889 19.6805,37.6752 l 19.9738,35.6261 0.3195,22.6126 c 0.2651,18.769 0.5744,22.7735 1.8194,23.5594 2.2646,1.4295 25.3396,1.2379 26.8,-0.2225 z m 131.48041,-0.2715 c 17.66482,-3.7432 28.52826,-15.384 29.50227,-31.6135 0.66921,-11.1509 -1.48139,-17.6329 -8.0814,-24.3577 -2.86069,-2.9148 -5.87626,-5.5436 -6.70126,-5.8416 -1.13893,-0.4115 -0.71754,-1.1822 1.75059,-3.2018 4.41792,-3.6149 7.82804,-9.8368 9.25344,-16.8832 3.71343,-18.3571 -7.7954,-34.304 -28.23487,-39.1231 -8.24788,-1.9446 -69.66818,-2.2086 -71.56918,-0.3076 -1.7331,1.7331 -1.7331,119.8669 0,121.6 1.8648,1.8648 65.09245,1.6331 74.08041,-0.2715 z m -46.28041,-60.5879 v -35.0595 l 19.5886,0.3095 19.58863,0.3094 2.4114,2.8058 c 1.63548,1.9029 2.41139,4.0315 2.41139,6.6151 0,7.1937 -5.6049,11.0607 -16.05002,11.0735 -2.5025,0 -5.09,0.5456 -5.75,1.2056 -1.6873,1.6873 -1.644,21.2046 0.05,22.5418 0.6875,0.5427 4.4162,1.2385 8.2859,1.5463 8.49693,0.6758 12.14741,2.1988 14.03912,5.8569 2.97712,5.7571 1.30321,12.7393 -3.80007,15.8508 -2.96504,1.8078 -5.04916,1.9971 -22.02495,2.0005 h -18.75 v -35.0594 z m 192.96484,60.1251 c 0.56935,-1.0638 1.03518,-6.0434 1.03518,-11.0657 0,-14.2417 3.20324,-13 -33.53518,-13 h -31.46482 v -12.5 -12.5 h 26.3 c 19.12222,0 26.6275,-0.3275 27.5,-1.2 0.78552,-0.7855 1.2,-4.9388 1.2,-12.0248 0,-10.6995 -0.0297,-10.836 -2.5651,-11.8 -1.4177,-0.539 -13.71875,-0.9752 -27.5,-0.9752 h -24.9349 v -9.4573 -9.4574 l 29.58171,-0.2926 c 27.94528,-0.2765 29.66017,-0.4001 31,-2.2338 2.10574,-2.882 1.98605,-20.8483 -0.15314,-22.9875 -1.3801,-1.3801 -6.83463,-1.5714 -44.8,-1.5714 -32.28889,0 -43.53225,0.3037 -44.42857,1.2 -1.73298,1.733 -1.73298,118.867 0,120.6 0.89799,0.898 12.59218,1.2 46.46482,1.2 43.72854,0 45.29995,-0.066 46.3,-1.9343 z m 50.83518,0.7343 c 0.89951,-0.8995 1.2,-13.0444 1.2,-48.5 v -47.3 h 14.28811 c 12.83098,0 14.74232,0.2295 18.74193,2.25 16.04445,8.1054 9.10033,28.75 -9.6705,28.75 -8.10664,0 -8.58058,0.9002 -8.18791,15.5527 l 0.32837,12.253 12,17.7035 c 6.6,9.7369 12.88763,18.3307 13.97251,19.0972 1.4525,1.0262 5.55189,1.3936 15.55,1.3936 13.39441,0 15.97749,-0.5739 15.97749,-3.5497 0,-0.6324 -6.10823,-10.0342 -13.57384,-20.8929 -7.46562,-10.8587 -13.42812,-19.871 -13.25,-20.0273 0.17811,-0.1563 2.31212,-1.2874 4.74224,-2.5134 5.87568,-2.9644 13.3146,-10.7466 16.488,-17.2489 7.67314,-15.7223 4.70773,-35.4958 -7.09302,-47.2965 -5.28652,-5.2865 -9.9805,-7.8891 -17.99298,-9.9761 -7.53062,-1.9614 -68.19872,-2.2169 -70.1204,-0.2952 -1.73298,1.733 -1.73298,118.867 0,120.6 1.65891,1.6589 24.94109,1.6589 26.6,0 z m 125,0 c 0.88559,-0.8856 1.2,-9.981 1.2,-34.7143 0,-28.4118 0.20843,-33.2913 1.36903,-32.05 0.75296,0.8054 9.82296,15.1893 20.15554,31.9643 10.33259,16.775 19.92571,31.7375 21.31807,33.25 2.48257,2.6968 2.7562,2.75 14.14445,2.75 7.69893,0 12.01735,-0.4044 12.81291,-1.2 1.73298,-1.733 1.73298,-118.867 0,-120.6 -1.77304,-1.773 -25.17859,-1.6537 -26.66387,0.136 -0.7503,0.904 -1.19401,12.0649 -1.37245,34.522 l -0.26368,33.186 -20,-32.272 c -11,-17.7496 -20.99205,-33.2845 -22.20455,-34.522 -2.04055,-2.0826 -3.08569,-2.25 -14.05,-2.25 -7.87979,0 -12.24719,0.4017 -13.04545,1.2 -1.73298,1.733 -1.73298,118.867 0,120.6 1.65891,1.6589 24.94109,1.6589 26.6,0 z m 158,0 c 0.7769,-0.7769 1.2,-4.8063 1.2,-11.4286 0,-12.79 -0.4379,-13.3714 -10.0714,-13.3714 h -6.9286 v -35.5 -35.5 h 6.8776 c 9.1558,0 9.6224,-0.6304 9.6224,-13 0,-6.7453 -0.4173,-10.1955 -1.3724,-11.3463 -1.2186,-1.4682 -4.6032,-1.6537 -30.1786,-1.6537 -24.85407,0 -29.02174,0.2156 -30.37757,1.5714 -1.20789,1.2079 -1.57143,3.7679 -1.57143,11.0658 0,12.9622 0.28587,13.3628 9.53518,13.3628 h 7.46482 v 35.5 35.5 h -6.92857 c -9.63349,0 -10.07143,0.5814 -10.07143,13.3714 0,6.6223 0.42309,10.6517 1.2,11.4286 0.87928,0.8793 9.11111,1.2 30.8,1.2 21.6889,0 29.9207,-0.3207 30.8,-1.2 z m 78.6286,-0.3714 c 1.3834,-1.3835 1.5714,-7.1256 1.5714,-48 v -46.4286 l 14.25,-0.015 c 19.5484,-0.02 19.1729,0.225 19.535,-12.7628 0.1653,-5.9288 -0.1646,-11.0632 -0.7852,-12.2229 -1.0467,-1.9557 -2.0965,-1.9996 -47.835,-1.9996 -35.0393,0 -47.0657,0.3009 -47.9648,1.2 -1.4549,1.4549 -1.6432,21.549 -0.223,23.8 0.7624,1.2085 4.0635,1.562 16.9847,1.8188 l 16.0383,0.3188 v 46.3598 c 0,40.8119 0.1881,46.5478 1.5714,47.9312 1.2519,1.2518 3.9827,1.5714 13.4286,1.5714 9.4459,0 12.1767,-0.3196 13.4286,-1.5714 z m 110.3714,0.3714 c 0.859,-0.859 1.2,-7.3183 1.2,-22.7325 v -21.5326 l 19.5685,-36.2755 c 12.4942,-23.1615 19.4533,-37.086 19.25,-38.5175 -0.3095,-2.1787 -0.6959,-2.2498 -13.7066,-2.5219 -11.401,-0.2384 -13.664,-0.03 -15.2467,1.402 -1.0222,0.9251 -6.6191,10.7261 -12.4376,21.78 -5.8184,11.0539 -10.8977,20.4283 -11.2872,20.8319 -0.3895,0.4037 -5.868,-8.7617 -12.1743,-20.3674 -6.3064,-11.6057 -12.4196,-21.7366 -13.5849,-22.513 -1.6263,-1.0835 -5.3458,-1.3468 -16,-1.1326 -13.1238,0.2639 -13.8972,0.3909 -14.1744,2.3283 -0.1728,1.2071 7.9145,16.6889 19.6805,37.6752 l 19.9738,35.6261 0.3194,22.6126 c 0.2652,18.769 0.5745,22.7735 1.8195,23.5594 2.2646,1.4295 25.3396,1.2379 26.8,-0.2225 z m -430.8,-221.6728 c 62.8591,-8.47487 122.27151,-34.09436 170.13361,-73.36406 l 7.63361,-6.26319 -2.84495,-3.5 c -1.56472,-1.925 -4.38245,-5.28906 -6.26163,-7.47568 l -3.41669,-3.97568 -5.37197,4.51114 c -36.44919,30.60833 -79.40189,52.26554 -127.42858,64.25084 -54.76322,13.66644 -112.16584,12.35002 -166.34895,-3.8149 -20.90107,-6.2356 -33.95801,-11.48056 -54.59445,-21.93055 -67.82762,-34.34689 -120.97962,-92.23202 -149.87642,-163.22271 -13.6574,-33.55193 -21.0778,-67.98622 -23.1856,-107.59246 l -0.6785,-12.75 h -9.5335 -9.5335 l 0.6745,14.94742 c 3.2281,71.53711 27.389,137.0572 71.3734,193.55258 58.25053,74.81924 147.67574,122.19977 243.25962,128.88724 13.51075,0.94527 52.00226,-0.37277 66,-2.25999 z m -43,-40.47485 v -9.34759 l -12.6176,-0.67454 c -73.5118,-3.92991 -138.67456,-32.79085 -189.88887,-84.10281 -29.47205,-29.52827 -52.34875,-66.029 -66.42985,-105.99158 -1.7372,-4.93026 -3.3161,-9.12167 -3.5087,-9.31424 -0.1926,-0.19257 -4.2212,0.85682 -8.9525,2.33198 -5.6542,1.76286 -8.6025,3.18283 -8.6025,4.14313 0,2.9577 10.3704,29.1889 16.5267,41.80325 45.8059,93.8569 136.56326,157.64514 240.47332,169.01522 6.325,0.6921 16.3375,1.3093 22.25,1.37157 l 10.75,0.11321 z m 107.38598,-10.28331 c 53.83128,-20.44458 102.48426,-57.42206 136.51127,-103.75195 35.81395,-48.76294 56.17785,-106.23306 58.77305,-165.86714 l 0.642,-14.75 h -9.6562 -9.6561 v 5.75 c -0.01,8.82208 -1.8449,27.39004 -4.0869,41.25 -4.536,28.04182 -13.0946,54.14727 -26.5556,81 -22.68736,45.25824 -54.86715,81.42521 -98.09833,110.25307 -15.22127,10.15 -44.07205,24.37243 -61.50577,30.32022 -7.5625,2.58006 -13.75,5.16535 -13.75,5.74508 0,1.17943 4.00592,15.81953 4.60381,16.82515 0.43736,0.73561 12.28084,-2.78613 22.78217,-6.77443 z m -82.60754,-15.89675 c 30.20643,-3.13454 52.62411,-8.81174 79.53656,-20.14235 32.41709,-13.64817 59.73361,-32.2116 85.72793,-58.25795 72.41667,-72.56162 96.87507,-177.15421 64.32427,-275.07204 -30.28258,-91.09448 -108.00535,-159.77318 -201.90038,-178.40661 -27.31697,-5.42104 -52.46115,-6.73169 -78.24526,-4.07858 -77.24079,7.94785 -143.79823,45.14687 -189.75758,106.05572 -28.6391,37.95474 -45.645,79.7948 -52.6068,129.42947 -1.6752,11.94357 -1.6689,50.0716 0.01,63 5.8346,44.91795 19.6391,82.58405 43.4299,118.5 54.60877,82.44027 152.35106,129.05156 249.48095,118.97234 z m -7.27844,-39.49896 c -34.65236,-6.27875 -54.84476,-10.86918 -60.81389,-13.82509 -7.72989,-3.82784 -37.145,-22.82701 -45.21497,-29.20428 -10.36307,-8.18938 -17.61576,-18.55829 -31.07193,-44.42243 -15.89784,-30.55727 -20.95763,-51.1313 -18.45014,-75.02158 2.74804,-26.18198 9.58556,-53.71118 16.97741,-68.35436 3.36095,-6.65801 4.18763,-10.72046 1.6503,-8.10993 -0.78277,0.80536 -3.90306,6.18929 -6.93397,11.96429 -5.85015,11.1467 -25.06289,65.48987 -26.27177,74.30963 -0.34692,2.53102 -0.11384,6.6547 0.51794,9.16373 1.01531,4.03217 11.19454,26.72431 26.24127,58.49859 13.03556,27.52727 37.02361,53.74058 64.6522,70.64968 8.66317,5.30198 13.21755,9.11481 13.21755,11.06546 0,2.42235 -8.25691,1.56418 -13.82706,-1.43709 -6.36313,-3.42854 -41.26479,-32.38176 -48.257,-40.03235 -11.49479,-12.57714 -20.12818,-27.06573 -30.27256,-50.80355 -3.50545,-8.20276 -8.87417,-19.89914 -11.93049,-25.99196 -7.5738,-15.09852 -9.06188,-20.60798 -8.46042,-31.32386 0.44572,-7.94104 1.48614,-11.37932 13.61111,-44.98071 12.16711,-33.71817 13.54986,-36.97111 18.88246,-44.42139 8.53267,-11.92115 19.54579,-22.11043 40.75396,-37.70532 31.15611,-22.90985 46.80396,-29.24397 72.5,-29.34739 15.51117,-0.0624 24.69679,1.84574 37.61328,7.81352 24.41517,11.2805 49.76537,36.48749 62.87506,62.51986 13.46713,26.74215 19.71048,61.62803 16.5672,92.57229 -1.91567,18.85899 -6.28986,29.79357 -15.88163,39.70086 -3.65081,3.77091 -5.27638,4.75 -7.88632,4.75 -2.98362,0 -3.28759,-0.2764 -3.28759,-2.98941 0,-2.17619 1.33247,-4.46078 4.89812,-8.39809 5.78271,-6.38547 9.1838,-12.06766 11.73912,-19.6125 1.59094,-4.69741 1.85565,-8.56444 1.81405,-26.5 -0.0842,-36.29568 -4.58664,-52.17745 -24.80232,-87.48651 -8.19275,-14.3096 -11.29807,-17.6733 -22.38638,-24.24905 -31.3497,-18.59146 -63.74022,-21.1779 -92.70253,-7.40246 -16.30781,7.75653 -33.62596,22.94289 -44.05755,38.63425 -9.05144,13.61531 -16.88683,33.80573 -19.02578,49.02607 -1.42756,10.15828 -3.94209,44.70557 -3.47673,47.76705 0.88813,5.84275 2.49187,3.43285 2.79046,-4.19316 0.28579,-7.29902 1.776,-10.6002 4.12871,-9.14615 3.08728,1.90805 4.1611,19.02874 1.58083,25.2042 -2.74828,6.57756 -1.99526,9.84878 5.94958,25.84576 11.40011,22.95418 25.56605,40.52654 44.69782,55.4461 16.1053,12.55943 32.65077,20.77233 47.61553,23.63556 5.38595,1.0305 16.29159,1.52572 37.17931,1.68829 l 29.55776,0.23005 9.5,-3.2732 c 9.3735,-3.22961 15.10666,-6.45347 13.8001,-7.76003 -0.36851,-0.36852 -8.68679,1.05921 -18.48506,3.17273 -15.90754,3.4313 -19.26052,3.83531 -31.31504,3.77326 -11.93472,-0.0614 -15.81893,-0.56355 -33.5,-4.3306 -25.45323,-5.42294 -32.73148,-8.20468 -43.01614,-16.44066 -39.93902,-31.9833 -60.47269,-76.22328 -58.13678,-125.25624 0.83407,-17.50799 3.15418,-34.12282 6.12818,-43.88526 5.77222,-18.94786 20.52909,-36.10038 44.47913,-51.69992 14.83963,-9.6656 18.92061,-11.06628 33.73872,-11.57994 10.74426,-0.37244 14.13079,-0.0401 28.5,2.79649 18.27988,3.60864 24.89902,5.93203 33.43665,11.73662 14.29875,9.72149 26.8987,28.7164 34.88828,52.59543 5.27234,15.7578 6.88064,26.57329 6.86286,46.15132 -0.0269,29.59671 -4.38743,43.7469 -17.3955,56.44927 -8.2736,8.07918 -21.51838,16.43252 -32.32538,20.38728 -7.07285,2.58827 -9.55894,2.99201 -18.66002,3.03037 -11.70345,0.0493 -16.79389,-1.46376 -26.39415,-7.84543 -7.37259,-4.90086 -9.60585,-7.26423 -9.60585,-10.16548 0,-2.38161 0.26958,-2.53251 3.75,-2.09905 2.0625,0.25687 8.25,2.53641 13.75,5.06566 5.5,2.52924 12.56585,4.99482 15.7019,5.47907 11.69447,1.80578 25.19331,-2.23441 36.43002,-10.90347 8.59899,-6.63407 27.12808,-29.89822 23.8129,-29.89822 -0.37948,0 -3.55447,2.67961 -7.05554,5.9547 -11.96027,11.18824 -24.34044,18.19479 -41.63565,23.56366 -11.6077,3.60332 -19.71488,3.27119 -25.98306,-1.06444 -3.64424,-2.5207 -5.2972,-5.01178 -11.27057,-16.98534 -15.50195,-31.07346 -22.13636,-56.79092 -21.32105,-82.64828 0.54852,-17.39622 1.59365,-19.42847 16.82105,-32.7086 l 3.5,-3.05243 -3.5,0.96569 c -9.67709,2.67 -16.00051,10.94853 -21.43015,28.05603 -9.03128,28.45545 -8.59812,35.14258 3.42783,52.91901 5.66497,8.3738 7.41889,12.32769 12.03292,27.12591 4.66088,14.9485 4.78018,18.87409 0.57359,18.87409 -1.93904,0 -4.41502,-3.0687 -13.94348,-17.2814 -14.9609,-22.31575 -16.77553,-26.92413 -17.41192,-44.2186 -1.19135,-32.37608 11.93506,-65.17054 29.02869,-72.52402 13.28799,-5.71634 40.84469,0.45729 54.0926,12.11857 14.04334,12.36145 23.69018,36.29227 22.31945,55.36762 -1.91493,26.64828 -16.80667,39.59752 -35.18953,30.59932 -10.71095,-5.24289 -18.17858,-13.90053 -21.54246,-24.97538 -2.19727,-7.23402 -2.41267,-19.11244 -0.35886,-19.78963 1.06602,-0.3515 4.30088,6.233 7.84009,15.95839 2.52442,6.93684 9.70847,16.16107 15.00331,19.26406 8.69168,5.09366 15.67005,4.16992 20.90995,-2.76788 6.07006,-8.03696 7.59201,-26.62273 3.19936,-39.07008 -6.47016,-18.33435 -22.03485,-33.27778 -36.76408,-35.29664 -14.57882,-1.99825 -29.37417,13.49767 -30.56218,32.00931 -0.5578,8.6917 1.2111,17.90842 7.9852,41.60636 5.42559,18.98041 6.40141,21.39955 9.94466,24.65364 2.42965,2.23138 27.41323,14.16507 34.20707,16.3394 13.46068,4.30801 34.78041,-7.49192 43.05301,-23.82876 7.8067,-15.41677 8.22016,-36.50352 1.1299,-57.62505 -3.72716,-11.10301 -11.9067,-28.70908 -16.43759,-35.38111 -11.0131,-16.21751 -26.56931,-25.1673 -49.92297,-28.72167 -27.36205,-4.16443 -41.25258,-1.03992 -59.30447,13.33987 -12.27783,9.78029 -25.16799,25.11023 -31.45093,37.40381 -4.11038,8.04264 -7.6071,29.6409 -8.14669,50.31987 -0.41067,15.73849 -0.19805,19.31823 1.6923,28.49222 4.87287,23.64837 17.85577,46.33044 42.93339,75.00778 13.96208,15.96625 18.15719,18.58954 38.33745,23.97328 64.88543,17.31029 125.98611,-4.81763 146.25134,-52.96567 10.28282,-24.43089 12.32873,-71.17725 5.01157,-114.50761 -2.66343,-15.7722 -2.25952,-14.69175 -17.19658,-46 -6.03527,-12.65 -12.2869,-25.90884 -13.89251,-29.46408 -5.73748,-12.70432 -17.12355,-23.26649 -34.61899,-32.11393 -7.98256,-4.03678 -11.28168,-3.83787 -5.56902,0.33577 1.7978,1.31346 6.43608,4.68985 10.30728,7.50308 12.52749,9.10382 22.14959,20.69342 27.8137,33.50098 1.3245,2.99494 4.96376,9.17689 8.08723,13.73767 16.09598,23.50275 21.9934,45.51605 24.6472,92.00051 2.17726,38.13746 0.28689,56.20188 -7.62986,72.91125 -11.85599,25.02363 -38.59247,46.04825 -69.49183,54.64591 -11.50803,3.20208 -32.21619,4.36729 -44.832,2.52261 -11.80723,-1.72644 -45.0805,-9.81536 -47.85628,-11.63412 -3.35401,-2.19763 -2.85235,-6.82043 0.78612,-7.24401 1.40955,-0.1641 11.17009,1.74378 21.69008,4.23974 28.53295,6.76967 35.99199,7.8868 48.24709,7.22586 13.53119,-0.72975 23.82973,-3.49631 37.5,-10.07386 13.01102,-6.26035 20.46077,-11.69001 30.59945,-22.30204 12.3609,-12.93802 19.54623,-27.31938 21.82103,-43.6746 1.38272,-9.94138 1.39867,-49.75664 0.025,-62.40615 -1.57115,-14.46812 -5.66326,-33.6726 -8.89442,-41.74204 -1.57146,-3.92453 -5.92739,-12.72295 -9.67984,-19.55203 -3.75246,-6.82909 -9.02262,-16.91652 -11.71146,-22.41652 -11.07411,-22.65196 -22.13515,-33.22435 -48.65976,-46.5101 -18.00516,-9.0185 -38.18637,-16.06401 -59,-20.59762 -17.87764,-3.8941 -43.23771,-1.29468 -70,7.17503 -23.0574,7.2972 -34.80265,14.41053 -64.80586,39.2487 -14.14332,11.70855 -20.25418,16.16027 -22.85218,16.64766 -1.95048,0.36591 -3.75998,0.45165 -4.0211,0.19052 -0.26113,-0.26112 0.34735,-2.2829 1.35218,-4.49283 1.31893,-2.90075 5.16383,-6.75927 13.82696,-13.87594 31.2729,-25.69038 48.31398,-36.16963 71.99676,-44.27372 13.40003,-4.58541 15.81716,-6.0117 10.18798,-6.0117 -4.47663,0 -20.78143,6.32056 -33.29635,12.90734 -5.01138,2.63756 -17.56858,10.31012 -27.90489,17.05013 -20.90723,13.63301 -23.41589,14.85 -27.12627,13.15943 -1.96061,-0.89331 -2.34356,-1.60751 -1.80965,-3.37499 0.37246,-1.23305 0.96413,-2.53657 1.31481,-2.89671 1.67063,-1.71567 50.38139,-28.80299 63.63761,-35.38792 20.06106,-9.96517 30.20717,-12.64759 48,-12.69021 23.14981,-0.0554 38.61632,3.7622 78.13712,19.28679 14.07452,5.52877 25.85143,9.79092 26.17091,9.47145 1.40691,-1.40692 -4.32118,-4.80906 -17.66165,-10.48994 -19.18916,-8.17149 -38.07094,-14.38014 -53.74478,-17.67221 -11.20755,-2.35398 -15.2651,-2.71484 -30.9016,-2.74819 -16.27144,-0.0347 -19.02779,0.21906 -28.70265,2.64261 -19.82003,4.96492 -43.08171,15.31048 -62.23558,27.67907 -12.52252,8.0864 -15.56177,8.82064 -15.56177,3.75952 0,-4.16477 3.46223,-7.58129 14.84242,-14.64648 34.64297,-21.50746 70.32502,-31.32743 102.28743,-28.15028 15.7017,1.5608 21.30458,2.87702 53.59375,12.59019 38.96455,11.72124 53.9666,18.70221 76.89545,35.78209 11.51638,8.57863 12.9601,10.32422 22.19141,26.83151 23.96633,42.85616 38.06616,80.23414 46.17088,122.3968 2.80543,14.59449 3.54319,28.04252 2.12207,38.68144 -1.48247,11.09819 -2.60387,14.21325 -5.71629,15.87897 -4.16191,2.22739 -4.56717,0.28454 -3.87152,-18.56041 0.88996,-24.10922 0.80335,-34.10765 -0.31274,-36.10199 -1.35829,-2.42713 -1.96349,2.40766 -2.70404,21.60199 -0.77367,20.05262 -2.19463,34.99134 -4.04257,42.5 -2.06849,8.40481 -7.58404,19.22139 -14.42137,28.28182 -8.82214,11.69058 -44.36728,45.42592 -53.36469,50.6476 -15.98125,9.27479 -45.09305,12.18382 -76.30111,7.6245 -54.88041,-8.01772 -91.41872,-34.69686 -114.43094,-83.55392 -5.83542,-12.38914 -10.50539,-25.9524 -11.8787,-34.5 -3.20851,-19.97006 1.01681,-59.11889 8.88979,-82.36649 7.84719,-23.17145 26.18887,-47.56823 45.61966,-60.68 23.51782,-15.86966 45.0285,-19.9517 76.26226,-14.47213 8.43213,1.47931 15.56438,2.45643 15.84943,2.17137 0.92168,-0.92167 -9.35702,-5.57015 -16.87126,-7.62993 -15.02548,-4.11873 -32.51123,-4.33554 -46.80932,-0.5804 -16.10875,4.23068 -41.34935,19.67427 -55.29701,33.83377 -6.75486,6.85746 -8.58362,9.53997 -13.68214,20.06962 -19.66195,40.6066 -27.11386,88.58406 -18.89546,121.65419 4.07445,16.39525 12.48566,34.2845 24.67519,52.48007 9.6029,14.33446 17.14369,21.45836 35.69942,33.72579 22.92329,15.15487 25.04901,16.07679 47.67611,20.67691 36.09845,7.33888 45.52921,8.56242 58.04308,7.53049 9.90238,-0.81658 11.38837,-0.72256 14.03638,0.88805 2.86226,1.74094 2.90211,1.86697 1.18897,3.75997 -4.71739,5.21266 -22.1192,6.96072 -38.94454,3.9121 z m 84.48201,-32.72338 c -0.0144,-2.20826 2.27459,-4.96621 11.61969,-14 11.95586,-11.55758 15.54099,-13.52649 16.8901,-9.27585 1.12002,3.52887 -2.45216,8.68001 -12.09104,17.43548 -8.06038,7.32163 -9.96989,8.59037 -12.92895,8.59037 -3.1164,0 -3.47365,-0.28152 -3.4898,-2.75 z m -69.81098,-19.54392 c -2.06715,-2.49076 1.34591,-3.95748 21.32897,-9.1659 9.9,-2.58036 19.125,-5.40755 20.5,-6.28265 1.375,-0.8751 6.36644,-4.88693 11.09209,-8.91518 25.83661,-22.02369 36.90791,-44.37183 36.90791,-74.50102 0,-3.14112 0.37769,-6.75293 0.83931,-8.02623 0.91303,-2.51844 -3.5132,-37.38047 -6.22038,-48.99325 -3.35686,-14.39963 -17.32958,-45.42523 -27.20023,-60.39649 -7.22578,-10.95968 -25.2677,-29.3566 -34.9187,-35.60577 -20.11246,-13.02313 -40.95922,-19.24598 -68.5,-20.44756 -30.41375,-1.32693 -55.24351,3.74793 -81.5,16.65747 -20.58249,10.1198 -36.26715,23.30619 -57.27626,48.15325 -10.71732,12.67516 -15.52384,16.68354 -18.59318,15.50573 -3.48069,-1.33567 -1.6588,-5.34337 7.40224,-16.28297 18.63158,-22.49434 37.60785,-39.88557 53.73057,-49.24259 27.08714,-15.72036 66.29258,-25.41715 96.23663,-23.80248 52.44353,2.82791 89.09625,24.90646 117.2691,70.63956 21.58912,35.0457 31.14628,77.60214 26.67725,118.78941 -1.63557,15.07371 -5.80946,34.20467 -8.4608,38.77998 -3.90568,6.73987 -16.08056,21.95666 -23.51838,29.39447 -17.09809,17.0981 -30.78653,23.3632 -53.97922,24.70591 -8.84534,0.51209 -10.71894,0.35929 -11.81692,-0.96369 z m -167.48835,-4.74105 c -2.23576,-1.75864 -19.68268,-32.34266 -19.68268,-34.50324 0,-0.43196 -2.53348,-5.77507 -5.62995,-11.87359 -7.65354,-15.07367 -9.86408,-21.2955 -11.90632,-33.51187 -2.68591,-16.0666 -1.02534,-32.55827 5.19329,-51.57633 6.93207,-21.19991 20.22947,-51.04764 27.84682,-62.50577 6.07821,-9.14294 17.21009,-19.25704 28.89497,-26.25315 10.18847,-6.10014 13.30814,-7.27742 15.50078,-5.84956 2.20102,1.43331 -1.82047,5.71312 -14.97195,15.93367 -16.61307,12.91068 -23.57016,20.81983 -30.79122,35.0049 -11.97277,23.51934 -18.65615,42.5048 -22.18444,63.01928 -3.351,19.48367 -2.13168,32.57923 4.46106,47.91206 8.29583,19.29372 22.75565,49.43208 26.48477,55.20176 4.76662,7.37489 5.34296,11.03681 1.73705,11.03681 -1.30083,0 -3.52931,-0.91574 -4.95218,-2.03497 z m 128.70996,-2.05318 c -23.43733,-3.92053 -38.23054,-14.38056 -54.27803,-38.3791 -28.0488,-41.94611 -32.98433,-79.35523 -15.88786,-120.4228 6.73238,-16.1719 22.33781,-34.73282 36.1422,-42.98713 12.68523,-7.58512 27.95129,-10.65488 40.81491,-8.20725 28.26847,5.37881 47.94039,17.59107 56.77765,35.24737 5.21994,10.42911 10.6281,27.3596 12.63027,39.53958 2.56475,15.60236 0.72175,32.73802 -4.74136,44.08366 -5.25546,10.91442 -17.91201,20.22452 -29.60224,21.77529 -5.05785,0.67094 -5.24762,0.60992 -5.23287,-1.68264 0.008,-1.30836 0.34592,-2.89762 0.75,-3.53169 0.40408,-0.63408 5.5093,-3.38778 11.34493,-6.11935 5.83563,-2.73157 10.92469,-5.47529 11.30902,-6.09714 1.34787,-2.18091 -2.938,-1.12082 -12.41752,3.07141 -11.50966,5.09004 -20.25406,6.119 -27.73181,3.26323 -5.5576,-2.12247 -15.26457,-11.65869 -20.09072,-19.73732 -10.41546,-17.43474 -13.02528,-44.46301 -5.8142,-60.21408 2.71887,-5.93879 9.53167,-13.89198 13.78346,-16.09067 3.22106,-1.66567 9.16299,-1.86208 11.90692,-0.39358 2.06073,1.10287 5.44309,6.80521 4.56022,7.68808 -0.29253,0.29253 -3.36321,0.83581 -6.82374,1.2073 -7.92882,0.85115 -10.11756,2.068 -13.20849,7.34337 -12.78255,21.81629 -1.88046,62.6351 19.22203,71.96973 7.99997,3.53877 13.02692,2.71989 27.19459,-4.42992 15.32605,-7.73438 16.51901,-9.18928 17.53491,-21.38507 2.22082,-26.66066 -8.19999,-54.6825 -26.78545,-72.02678 -11.37673,-10.61697 -23.47197,-14.90145 -41.74946,-14.78885 -18.10685,0.11154 -27.53629,4.09008 -40.55924,17.11303 -9.31857,9.31857 -15.19142,17.4803 -20.40032,28.35109 -10.73608,22.40586 -12.45819,47.94349 -4.85045,71.92838 4.53142,14.28617 19.26297,42.18334 27.80712,52.65841 6.05341,7.42144 20.16255,18.51526 21.65264,17.02517 0.26315,-0.26315 -3.71289,-4.69983 -8.83565,-9.8593 -18.93635,-19.07205 -30.05192,-39.13763 -35.4692,-64.02821 -2.4983,-11.47883 -2.46397,-35.98467 0.067,-47.79607 4.89766,-22.85661 15.27751,-42.86812 21.08042,-40.64134 3.01996,1.15887 1.77864,7.64991 -3.46927,18.14134 -2.75115,5.5 -5.75206,12.925 -6.66869,16.5 -2.11476,8.24795 -2.08165,25.57622 0.0698,36.5 0.86657,4.4 1.58347,11.375 1.59311,15.5 0.0258,11.04581 2.34927,20.24318 7.95754,31.5 9.84366,19.758 27.31288,39.07956 41.79011,46.22131 7.63341,3.76563 7.7015,3.77834 19.69752,3.67661 37.99176,-0.32218 62.46716,-11.59714 76.51879,-35.24953 16.60864,-27.95648 21.28302,-65.53133 12.49269,-100.42202 -11.67941,-46.35776 -35.51106,-78.5981 -71.47392,-96.69244 -20.60854,-10.36898 -34.23077,-13.53013 -55,-12.76322 -16.62538,0.61391 -27.07873,3.20971 -46.69586,11.59567 -7.59228,3.24556 -18.97914,8.01991 -25.30414,10.60968 -23.40956,9.58503 -30.24854,14.11672 -41.00978,27.17414 -14.6284,17.74976 -26.72259,39.36535 -31.52841,56.3498 -1.47843,5.225 -3.63814,10.5365 -4.79935,11.80333 -2.00965,2.19244 -2.1768,2.21651 -3.47179,0.5 -1.74972,-2.31924 -0.88948,-12.00517 1.72704,-19.44566 9.37433,-26.65747 32.37909,-60.02156 49.51387,-71.8106 9.1329,-6.2836 50.65337,-24.26219 70.14234,-30.37202 19.55511,-6.13056 42.15602,-7.56956 59.92608,-3.81549 28.79856,6.08394 56.60949,24.87276 78.13575,52.78784 19.7103,25.56015 28.14056,49.44306 31.46851,89.15027 2.40031,28.63911 -0.40473,48.58794 -9.49529,67.52845 -13.83806,28.83209 -36.2078,45.40844 -68.99434,51.12593 -9.61171,1.67614 -34.37568,1.93958 -43.22199,0.4598 z m 18.01686,-15.32944 c -17.70068,-4.04475 -33.37007,-13.88563 -43.9008,-27.57111 -8.54132,-11.10008 -17.26964,-32.1416 -16.04365,-38.67671 1.23152,-6.56456 3.44379,-3.9319 12.3319,14.67537 8.18377,17.13272 13.69934,24.93844 22.06539,31.22731 11.96761,8.99622 23.30517,12.72293 38.78232,12.74795 13.46084,0.0218 25.93052,-4.19798 36.70178,-12.41986 4.74501,-3.62195 8.34835,-4.47057 10.37542,-2.4435 4.03182,4.03182 -10.05613,14.9767 -26.3227,20.45001 -9.71349,3.26836 -24.62515,4.15041 -33.98966,2.01054 z M -937.3243,678.33619 c -4.9606,-5.28031 -5.0526,-14.00144 -0.20883,-19.79527 l 2.82916,-3.38407 0.60603,5.5 c 1.11991,10.16383 1.14194,19.27995 0.0475,19.66567 -0.5817,0.20502 -2.05494,-0.68883 -3.27388,-1.98633 z m 169.67522,-28.42934 c -5.00973,-4.16247 -7.53758,-7.10505 -12.44477,-14.48656 -6.59095,-9.91424 -9.60917,-18.59476 -9.768,-28.0931 -0.12395,-7.4122 0.0187,-7.95871 2.67483,-10.25 3.20156,-2.76177 6.5455,-3.06574 10.60905,-0.96439 3.27202,1.69202 5.09294,5.20684 9.55,18.43379 1.7811,5.28564 4.38574,11.86026 5.78809,14.61026 l 2.54974,5 1.2064,-2.63412 c 2.30186,-5.02603 -2.38329,-18.23368 -10.94907,-30.86588 -3.40341,-5.01911 -3.77503,-7.16167 -1.56087,-8.99925 3.59318,-2.98208 9.22607,2.56649 15.77815,15.54196 5.72957,11.34661 7.91396,27.80766 4.86674,36.67456 -2.91827,8.49166 -11.81219,11.42355 -18.30029,6.03273 z m 144.36323,-0.5 c -1.1301,-1.87755 -2.23494,-6.12881 -2.61628,-10.06709 -0.97012,-10.01884 -5.70095,-27.3085 -12.10889,-44.25406 -3.10493,-8.21087 -8.57508,-23.47885 -12.15589,-33.92885 -9.7866,-28.56052 -18.72211,-44.47823 -31.33293,-55.81644 -16.88936,-15.18498 -50.83617,-35.38986 -69.99294,-41.65924 -10.76053,-3.52157 -54.89605,-14.83632 -64,-16.40729 -20.93035,-3.61171 -41.57257,-2.97468 -63.71921,1.96641 -19.30025,4.30604 -31.46918,9.4896 -40.19275,17.12076 -2.73458,2.39214 -6.57308,5.01834 -8.53,5.836 l -3.55804,1.48664 v -3.87263 c 0,-7.05246 10.02676,-16.28449 23.5,-21.63737 10.60468,-4.21321 22.13841,-7.32714 35.72589,-9.64542 10.61064,-1.81039 14.98465,-2.0251 32.27411,-1.58429 21.55043,0.54945 23.27175,0.84875 52.8638,9.19182 13.53613,3.81633 17.23677,4.00427 9.02774,0.45847 -38.04342,-16.43239 -89.00268,-18.38906 -125.36698,-4.81369 -12.19349,4.55203 -14.24754,4.48969 -14.83864,-0.45032 -0.47907,-4.0037 3.78704,-5.94247 21.08596,-9.58274 28.31302,-5.958 43.09873,-8.09093 56.05759,-8.08665 20.42285,0.007 34.67556,3.06004 58.92637,12.62352 23.43203,9.24058 29.75923,12.69404 70.06121,38.24014 29.81765,18.90044 38.32851,25.70243 47.96508,38.33438 8.9023,11.66943 12.86151,20.24578 25.74092,55.7594 15.041,41.47397 16.50608,45.95853 19.10311,58.47389 3.90655,18.82616 1.66452,31.59147 -3.91923,22.31465 z m 0.53883,-50.47843 c -1.01246,-1.11876 -2.05225,-5.21054 -2.74116,-10.78703 -4.97989,-40.31033 -23.21169,-74.9663 -52.07721,-98.99108 -24.36624,-20.28003 -78.69774,-50.93809 -106.10431,-59.8723 -35.16584,-11.46364 -67.4352,-12.5455 -105.00087,-3.52025 -14.81256,3.55875 -18.32221,3.55016 -18.32221,-0.0449 0,-3.43962 3.89217,-5.42098 17.52122,-8.91938 15.50903,-3.98097 31.1962,-5.50411 48.47878,-4.70702 8.64038,0.39851 14.56316,0.26926 15.47104,-0.3376 0.80907,-0.54082 1.25304,-1.2013 0.9866,-1.46774 -0.26644,-0.26644 -8.12613,-1.02441 -17.46597,-1.68438 -21.85113,-1.54403 -36.03568,-0.8888 -43.99167,2.03213 -9.91263,3.63928 -9.5,3.63058 -9.5,0.20034 0,-8.48198 11.04515,-11.78655 35.82051,-10.71704 18.24586,0.78764 37.46663,3.02902 43.13983,5.03065 2.42831,0.85675 8.71813,3.83858 13.97738,6.62628 5.25926,2.7877 13.92337,6.60017 19.25359,8.47216 31.12537,10.9313 67.04143,29.93122 99.06248,52.40493 11.36215,7.97444 31.23379,27.67212 39.07705,38.73497 12.83437,18.10278 20.22344,36.55673 26.14143,65.28742 2.8905,14.03276 3.19949,16.83252 2.1958,19.89588 -1.33827,4.08448 -3.56195,4.97208 -5.92231,2.36392 z m -9.90775,-75.0128 c -1.44804,-0.87862 -4.55962,-4.98407 -6.91462,-9.12322 -14.19534,-24.94974 -36.39102,-46.38756 -67.70578,-65.394 -15.05449,-9.1373 -25.9691,-14.24801 -56.71761,-26.55774 -62.19673,-24.89958 -69.64941,-27.03575 -97,-27.80324 -15.05355,-0.42242 -18.5,-0.84958 -18.5,-2.29297 0,-2.67474 10.18475,-6.0876 18.16678,-6.0876 1.55827,0 2.83322,-0.37723 2.83322,-0.83829 0,-1.50284 30.22829,4.69073 41,8.40061 18.32751,6.31218 60.10758,22.15037 79.13276,29.99804 27.65567,11.40764 41.56196,19.27164 59.47011,33.63034 9.54021,7.6493 29.79549,27.87976 36.04286,35.99868 5.7384,7.45749 14.31465,23.51463 14.31977,26.81062 0.006,4.1708 -1.13678,5.07342 -4.12749,3.25877 z m -6.39322,-33.65978 c -1.10013,-0.77056 -4.46276,-5.58357 -7.47251,-10.69557 -9.36204,-15.90125 -24.70272,-29.69984 -43.59707,-39.21458 -12.2889,-6.18839 -123.37065,-49.88395 -138.17181,-54.3518 -7.48985,-2.26088 -10.65548,-2.64183 -22.7034,-2.73212 -7.7,-0.0577 -14.54553,-0.45849 -15.21229,-0.89063 -1.96543,-1.27384 0.54736,-5.46114 3.99935,-6.66451 7.38496,-2.57442 28.16277,-0.61359 43.51324,4.10639 7.68479,2.36293 37.14685,14.03245 81.36242,32.22654 16.8645,6.93951 31.21269,12.61729 31.88486,12.61729 4.8271,0 -18.58382,-11.11566 -82.48101,-39.16255 -30.67986,-13.46654 -36.07118,-15.04094 -52.3292,-15.28136 -13.5845,-0.20089 -15.53275,-0.93015 -12.96291,-4.85222 1.33849,-2.04278 2.9063,-2.58119 10.56324,-3.62756 10.30792,-1.40865 12.53241,-0.95174 38.52392,7.9128 25.63097,8.74158 45.50852,17.39316 81.59289,35.5128 18.93253,9.50691 27.12555,14.99169 39.44997,26.4096 8.21962,7.61503 10.59552,9.23874 10.59552,7.24109 0,-1.67054 -13.11137,-16.17255 -19.24466,-21.28582 -12.89143,-10.74748 -27.36537,-18.64086 -60.07865,-32.76398 -32.54606,-14.05093 -50.08571,-20.9429 -61.30193,-24.08778 -7.68065,-2.15355 -11.38223,-3.70499 -12.60252,-5.28208 -2.2451,-2.90154 -2.21198,-3.15964 0.59861,-4.66382 1.94411,-1.04046 3.69908,-0.99157 9.75,0.27162 9.77945,2.04155 10.30811,2.24546 47.87915,18.46808 60.58151,26.1582 63.10977,27.40339 75.23675,37.05478 13.3636,10.63556 25.95283,26.53102 45.11454,56.9627 12.19061,19.36052 12.76723,20.51273 12.13582,24.25 -0.73143,4.32927 -1.11834,4.57073 -4.04232,2.52269 z m -25.00699,-61.04629 c -1.68421,-0.71402 -7.30921,-5.96448 -12.5,-11.66769 -12.77456,-14.03562 -18.33804,-19.25557 -25.49433,-23.92012 -6.46603,-4.21462 -72.10715,-34.34994 -84.13802,-38.62709 -3.957,-1.40677 -7.9797,-3.42535 -8.93932,-4.48573 -1.67055,-1.84593 -1.63466,-2.03808 0.84329,-4.51604 l 2.58808,-2.58808 9.84711,3.24861 c 5.41591,1.78673 20.87397,8.416 34.35125,14.73171 50.5008,23.66564 57.27014,27.84482 71.19691,43.95478 15.29432,17.69187 16.55906,19.60471 15.64579,23.66332 -0.29009,1.28917 -0.77693,1.31871 -3.40076,0.20633 z m -66.9378,-65.22655 c -13.98552,-7.37681 -21.50887,-12.36872 -21.49625,-14.26324 0.002,-0.3096 2.05441,-1.4063 4.56077,-2.4371 l 4.55702,-1.87419 6.49487,2.76035 c 8.72334,3.70747 17.21631,9.31628 23.87976,15.77034 6.65882,6.44958 7.13172,8.76858 1.75383,8.60045 -2.62303,-0.082 -8.55839,-2.65348 -19.75,-8.55661 z m 261.7418,323.10339 c 17.6332,-57.4782 19.3166,-122.20034 4.6936,-180.44385 -22.5376,-89.76684 -79.97417,-165.43785 -161.13097,-212.28526 -23.78377,-13.72908 -58.5539,-27.54721 -86.17088,-34.24549 -19.94723,-4.83805 -55.15651,-9.45494 -72.10511,-9.45494 h -8.52844 v 9.5 c 0,5.225 0.3375,9.50402 0.75,9.50894 7.26626,0.0866 36.35082,2.36143 44.25,3.46095 60.20679,8.38043 116.16141,33.7154 162.44294,73.55043 39.09782,33.65194 70.40566,77.49294 88.89356,124.47968 15.3273,38.95385 21.9428,74.18427 21.9701,117 0.021,32.38703 -3.4027,57.55767 -11.8827,87.36937 -1.9352,6.80315 -3.3847,12.44489 -3.2212,12.5372 1.4904,0.84133 16.522,5.35148 17.2587,5.17838 0.5288,-0.12423 1.78,-2.89417 2.7804,-6.15541 z M -1076.148,575.00321 c 1.5035,-31.35 8.7616,-64.47292 20.4545,-93.34636 14.7108,-36.3255 35.2986,-67.15092 63.82024,-95.5559 l 13.11951,-13.06586 -6.21757,-6.89349 -6.21757,-6.8935 -3.92401,3.10788 c -6.4259,5.08943 -25.6564,25.41191 -34.2299,36.17361 -30.1693,37.86936 -50.9206,82.46436 -60.5817,130.19117 -3.3858,16.72622 -5.5683,36.00205 -5.5683,49.17996 v 10.75613 h 9.345 9.345 z m -11.4547,-104.85673 c 29.1693,-72.44023 84.1064,-132.01415 153.84946,-166.83482 12.95059,-6.46584 32.54421,-14.46772 44.51046,-18.1777 4.8125,-1.49205 8.74513,-2.77229 8.73918,-2.84497 -0.006,-0.0727 -0.6936,-2.38214 -1.5281,-5.13214 -0.8345,-2.75 -1.97197,-6.6875 -2.52772,-8.75 -0.70546,-2.61813 -1.56893,-3.75 -2.86075,-3.75 -5.2263,0 -36.41746,12.10393 -54.56418,21.17398 -65.39625,32.68618 -118.48535,85.3777 -150.95665,149.82602 -7.922,15.72334 -18.1789,39.70622 -17.3401,40.54496 0.6726,0.67261 16.2429,6.20627 17.0694,6.06644 0.4296,-0.0727 2.9537,-5.52747 5.609,-12.12177 z m 524.40609,-69.48963 c 3.08106,-2.475 5.51236,-4.81538 5.40288,-5.20084 -0.10948,-0.38547 -4.69905,-5.73597 -10.19905,-11.89 -38.41542,-42.98363 -90.9804,-74.73901 -148.01161,-89.4163 -21.84441,-5.62178 -49.08914,-9.46435 -67.23839,-9.48323 l -9.25,-0.01 v 9.34787 9.34788 l 13.75,0.67813 c 38.44363,1.89599 77.22738,11.82869 111.75,28.61967 31.83725,15.48489 62.7351,38.831 85.89579,64.902 7.71404,8.68336 9.12181,9.8536 10.59712,8.80904 0.93573,-0.66253 4.22219,-3.22959 7.30326,-5.70459 z"
       style="fill:#000000"
       sodipodi:nodetypes="cccccccccccsccsccscscssccsccccscssccscscccscscccscccscccccccccscccccscccccsscccscscsccccccscssccscscsscccsssccsscscccscscscccscscscccssscccsscscsscccsscsscsccscsscccscsccsscccccccccccscccssscscccssssscccssssccsssccsssscccscccccccsssccccsssssssssccsssssscscsssssssssssscsssssssssssssssscssssscscscsssssscssscscssscssscscsscccssssssssssscscssssscsssssscssssssscscscsssssscssssssssssssscccssssscccscscsssssssssssssssssssssssssscssssssssscsscscssccssssssssssscssssssssccsscssccsssssscsssssssscccscscssccscsssssssssssssccscccsssscssssssscsssssssssssssscsssscscccccsssccccccscssscssssssssccsscsscscscsssssccssssssscssssscsssssccccssssssssssscccssssccssssscssssssssscsssssccscscccsssscscccsscsccssscscssccccccsssccccssscccsssscscsssscsccssscccssscc" />
  </g>
</svg>
